<svg width="35" height="35" viewBox="0 0 35 35" fill="none" xmlns="http://www.w3.org/2000/svg">
<g id="bi:apple" clip-path="url(#clip0_88_137)">
<g id="Group">
<path id="Vector" d="M24.4606 0.0175153C24.3862 -0.0656097 21.7065 0.0503279 19.3746 2.58127C17.0428 5.11002 17.4015 8.01064 17.454 8.08502C17.5065 8.15939 20.779 8.27533 22.8681 5.33314C24.9571 2.39095 24.535 0.102828 24.4606 0.0175153ZM31.71 25.6835C31.605 25.4735 26.624 22.9841 27.0878 18.1978C27.5515 13.4094 30.7518 12.0969 30.8021 11.9547C30.8525 11.8125 29.4962 10.2266 28.059 9.42377C27.0038 8.85776 25.8359 8.53347 24.64 8.47439C24.4037 8.46783 23.5834 8.26658 21.8968 8.72814C20.7856 9.0322 18.2809 10.0166 17.5918 10.056C16.9006 10.0953 14.8443 8.91408 12.6328 8.60126C11.2175 8.32783 9.71684 8.88783 8.64277 9.31877C7.5709 9.74752 5.53215 10.9681 4.1059 14.2122C2.67965 17.4541 3.42558 22.5903 3.95933 24.1872C4.49308 25.7819 5.32652 28.396 6.74402 30.3035C8.00402 32.456 9.67527 33.95 10.3731 34.4575C11.0709 34.965 13.0396 35.3019 14.4046 34.6041C15.5028 33.9303 17.4846 33.5431 18.2678 33.5716C19.0487 33.6 20.5887 33.9085 22.1659 34.7506C23.415 35.1816 24.5962 35.0022 25.7796 34.521C26.9631 34.0375 28.6759 32.2044 30.6753 28.4878C31.4343 26.7597 31.78 25.8256 31.71 25.6835Z" fill="black"/>
<path id="Vector_2" d="M24.4606 0.0175153C24.3862 -0.0656097 21.7065 0.0503279 19.3746 2.58127C17.0428 5.11002 17.4015 8.01064 17.454 8.08502C17.5065 8.15939 20.779 8.27533 22.8681 5.33314C24.9571 2.39095 24.535 0.102828 24.4606 0.0175153ZM31.71 25.6835C31.605 25.4735 26.624 22.9841 27.0878 18.1978C27.5515 13.4094 30.7518 12.0969 30.8021 11.9547C30.8525 11.8125 29.4962 10.2266 28.059 9.42377C27.0038 8.85776 25.8359 8.53347 24.64 8.47439C24.4037 8.46783 23.5834 8.26658 21.8968 8.72814C20.7856 9.0322 18.2809 10.0166 17.5918 10.056C16.9006 10.0953 14.8443 8.91408 12.6328 8.60126C11.2175 8.32783 9.71684 8.88783 8.64277 9.31877C7.5709 9.74752 5.53215 10.9681 4.1059 14.2122C2.67965 17.4541 3.42558 22.5903 3.95933 24.1872C4.49308 25.7819 5.32652 28.396 6.74402 30.3035C8.00402 32.456 9.67527 33.95 10.3731 34.4575C11.0709 34.965 13.0396 35.3019 14.4046 34.6041C15.5028 33.9303 17.4846 33.5431 18.2678 33.5716C19.0487 33.6 20.5887 33.9085 22.1659 34.7506C23.415 35.1816 24.5962 35.0022 25.7796 34.521C26.9631 34.0375 28.6759 32.2044 30.6753 28.4878C31.4343 26.7597 31.78 25.8256 31.71 25.6835Z" fill="black"/>
</g>
</g>
<defs>
<clipPath id="clip0_88_137">
<rect width="35" height="35" fill="white"/>
</clipPath>
</defs>
</svg>
